<?xml version="1.0"?>
<svg xmlns="http://www.w3.org/2000/svg" viewBox="0 0 24 24" width="24px" height="24px">
    <path style="line-height:normal;text-indent:0;text-align:start;text-decoration-line:none;text-decoration-style:solid;text-decoration-color:#000;text-transform:none;block-progression:tb;isolation:auto;mix-blend-mode:normal" d="M 3 5 A 1.0001 1.0001 0 1 0 3 7 L 21 7 A 1.0001 1.0001 0 1 0 21 5 L 3 5 z M 3 11 A 1.0001 1.0001 0 1 0 3 13 L 21 13 A 1.0001 1.0001 0 1 0 21 11 L 3 11 z M 3 17 A 1.0001 1.0001 0 1 0 3 19 L 21 19 A 1.0001 1.0001 0 1 0 21 17 L 3 17 z" font-weight="400" font-family="sans-serif" white-space="normal" overflow="visible"/>
</svg>
